# xmcd
#
# Track frame offsets:
#	150
#	12751
#	28758
#	42241
#	55058
#	72338
#	87402
#	107054
#	121546
#	135303
#	149276
#	165012
#	176668
#	189332
#
# Disc length: 2761 seconds
#
# Revision: 0
# Processed by: cddbd v1.5.1PL0 Copyright (c) Steve Scherf et al.
# Submitted via: audiograbber 1.83.01
#
DISCID=ab0ac70e
DTITLE=Truck Stop - Der Tramp
DYEAR=1900
DGENRE=Country
TTITLE0=Der wilde, wilde Westen
TTITLE1=Ich möchte so gern Dave Dudley hör'n
TTITLE2=Take it easy, altes Haus
TTITLE3=Ich und mein Diesel
TTITLE4=Old Texas Town, die Westernstadt
TTITLE5=Easy Rider
TTITLE6=Nein danke, ich rauch nicht mehr
TTITLE7=Der Koenig von der Autobahn  
TTITLE8=Hillybilly, Country Lilly
TTITLE9=Asphaltfieber
TTITLE10=Jeden Tag in einer anderen Stadt
TTITLE11=Bleifuss Joe
TTITLE12=Wieder 'mal zu spaet
TTITLE13=Amerika
EXTD=
EXTT0=
EXTT1=
EXTT2=
EXTT3=
EXTT4=
EXTT5=
EXTT6=
EXTT7=
EXTT8=
EXTT9=
EXTT10=
EXTT11=
EXTT12=
EXTT13=
PLAYORDER=
